<svg width="1440" height="778" viewBox="0 0 1440 778" fill="none" xmlns="http://www.w3.org/2000/svg">
<path d="M-35.3494 776.871C-14.3049 683.495 77.1943 490.113 274.835 463.593C521.885 430.443 700.485 611.6 976.934 554.773C1198.09 509.312 1383.76 166.92 1448.94 1.406M-98.448 451.132C-61.5783 521.983 62.4973 653.659 263.842 613.554C515.523 563.422 850.853 96.3579 1172.92 134.053C1430.57 164.209 1649.58 205.896 1726.88 222.97M-93.8108 634.836C-80.2397 522.508 6.91112 287.488 246.945 246.037C546.987 194.224 771.504 398.768 1095.59 335.574C1354.86 285.018 1525.74 132.338 1578.77 62.3177" stroke="#0154B6" stroke-opacity="0.19" stroke-linecap="round"/>
</svg>
