<?xml version="1.0" standalone="no"?>
<!DOCTYPE svg PUBLIC "-//W3C//DTD SVG 20010904//EN"
 "http://www.w3.org/TR/2001/REC-SVG-20010904/DTD/svg10.dtd">
<svg version="1.0" xmlns="http://www.w3.org/2000/svg"
 width="625.000000pt" height="625.000000pt" viewBox="0 0 625.000000 625.000000"
 preserveAspectRatio="xMidYMid meet">

<g transform="translate(0.000000,625.000000) scale(0.100000,-0.100000)"
fill="#000000" stroke="none">
<path d="M4755 5100 c-27 -5 -72 -16 -100 -24 -36 -11 -52 -12 -60 -4 -7 8 -6
9 3 4 7 -4 12 -1 12 8 0 14 -7 13 -51 -4 -125 -50 -270 -185 -333 -313 -49
-100 -77 -213 -79 -317 -1 -96 6 -170 18 -191 5 -8 5 -11 0 -7 -4 4 -14 3 -21
-3 -14 -11 -14 6 -1 28 4 6 2 15 -4 19 -7 4 -9 3 -6 -2 3 -6 -3 -16 -15 -23
-12 -7 -17 -8 -13 -1 4 7 -2 9 -19 6 -14 -3 -28 -1 -31 4 -3 5 3 7 15 5 11 -2
22 -1 24 3 3 4 -11 8 -29 8 -18 0 -31 -4 -28 -9 3 -5 -4 -4 -16 2 -11 7 -21
16 -21 21 0 6 -4 10 -10 10 -5 0 -7 -8 -5 -17 3 -10 -1 -4 -9 12 -9 18 -15 23
-16 13 0 -9 -4 -19 -9 -22 -5 -4 -7 4 -4 16 4 19 3 20 -6 8 -9 -13 -15 -8 -13
11 2 11 -57 2 -73 -11 -8 -7 -15 -9 -15 -5 0 4 -7 2 -15 -5 -8 -7 -15 -9 -15
-4 0 5 -10 -2 -21 -16 -11 -14 -18 -18 -14 -10 4 9 0 7 -8 -3 -15 -18 -15 -18
-20 0 -4 14 -5 13 -6 -5 0 -13 -5 -20 -11 -17 -6 4 -8 10 -5 15 3 5 0 12 -7
16 -7 4 -10 4 -6 -1 13 -14 -13 -37 -27 -25 -9 7 -16 5 -26 -7 -12 -14 -12
-16 0 -8 10 5 12 4 7 -4 -6 -9 -11 -9 -21 -1 -14 12 -41 -12 -31 -29 7 -10
-19 -9 -30 2 -4 3 -15 2 -25 -3 -12 -7 -19 -6 -22 3 -3 6 -6 7 -6 1 -1 -10
-130 -2 -149 10 -10 6 -104 15 -199 20 -33 2 -65 6 -72 10 -6 4 -11 1 -11 -6
0 -9 -3 -9 -10 2 -8 12 -10 12 -10 1 0 -10 -3 -11 -13 -2 -8 6 -16 9 -18 6 -3
-2 -47 -7 -98 -10 -51 -3 -96 -7 -100 -10 -10 -5 -55 -14 -111 -21 -89 -12
-304 -71 -470 -130 -259 -93 -452 -201 -680 -378 -36 -28 -69 -54 -75 -59 -5
-4 -46 -35 -90 -70 -114 -89 -201 -147 -209 -140 -3 3 -6 1 -6 -5 0 -8 -34
-21 -70 -27 -3 0 -9 -3 -15 -6 -17 -11 -64 -1 -88 18 -57 45 -167 148 -187
176 -24 32 -38 127 -18 127 6 0 5 7 -3 17 -10 11 -10 14 -1 9 6 -4 12 -3 12 3
0 5 -9 9 -20 8 -10 -1 -17 -3 -15 -6 3 -2 -3 -10 -13 -18 -10 -9 -11 -11 -2
-7 13 7 13 6 0 -11 -8 -10 -14 -20 -12 -22 1 -1 -1 -3 -5 -2 -5 0 -7 13 -6 29
2 16 -1 31 -6 34 -5 3 -8 -2 -7 -11 0 -9 -6 -18 -14 -20 -12 -4 -12 -3 -1 5 8
6 9 12 3 16 -10 6 -27 -21 -23 -38 1 -5 -5 -6 -14 -2 -9 3 -13 2 -10 -3 3 -6
-3 -14 -12 -20 -10 -6 -14 -11 -10 -11 5 0 0 -11 -11 -25 -11 -14 -23 -48 -27
-75 -10 -73 18 -124 116 -209 94 -81 131 -101 191 -101 74 1 145 42 376 218
195 148 366 259 514 332 394 195 951 296 1343 244 316 -42 696 -171 1008 -341
186 -101 353 -222 562 -408 269 -238 315 -277 371 -311 52 -31 65 -35 107 -30
67 7 138 53 268 171 l54 48 -69 -38 c-73 -41 -107 -45 -154 -21 -57 29 -197
153 -412 361 -134 130 -160 159 -160 176 0 5 -5 7 -12 3 -8 -5 -9 -2 -4 11 5
14 4 15 -7 7 -10 -8 -13 -6 -13 8 0 10 5 16 11 12 5 -3 4 2 -4 11 -7 9 -10 17
-5 17 5 0 4 4 -3 8 -6 4 37 6 95 4 183 -6 333 41 467 148 78 62 124 118 174
212 64 120 83 194 83 333 0 103 -3 131 -26 200 -69 210 -215 373 -391 436 -68
25 -271 35 -360 19z m277 -119 l33 -29 -2 -107 c-3 -134 -39 -524 -58 -629 -8
-44 -20 -83 -27 -88 -7 -4 -27 -8 -45 -8 -39 0 -48 15 -57 95 -4 33 -9 74 -11
90 -2 17 -7 71 -10 120 -5 86 -10 146 -21 244 -2 25 -11 85 -19 135 -21 128
-20 143 14 177 27 27 35 29 100 29 64 0 74 -3 103 -29z m-1119 -656 c-4 -14
-30 -14 -30 0 0 7 7 12 16 10 9 -1 15 -6 14 -10z m-46 -10 c0 -8 -4 -12 -9 -9
-5 3 -6 10 -3 15 9 13 12 11 12 -6z m-156 -68 c-10 -9 -11 -8 -5 6 3 10 9 15
12 12 3 -3 0 -11 -7 -18z m-71 -7 c0 -5 -5 -10 -11 -10 -5 0 -7 5 -4 10 3 6 8
10 11 10 2 0 4 -4 4 -10z m1361 -185 c6 -4 18 -23 26 -42 11 -27 12 -42 3 -69
-15 -44 -45 -64 -97 -64 -42 0 -63 13 -84 52 -14 25 -3 102 16 118 32 27 96
29 136 5z"/>
<path d="M776 3778 c3 -5 10 -6 15 -3 13 9 11 12 -6 12 -8 0 -12 -4 -9 -9z"/>
<path d="M2140 3630 c-8 -4 -42 -21 -75 -36 -63 -29 -217 -113 -225 -123 -3
-3 -32 -24 -65 -45 -163 -106 -414 -353 -491 -481 -86 -143 -72 -224 62 -343
132 -119 193 -132 309 -68 64 35 215 150 215 163 0 3 -8 -1 -17 -9 -17 -15
-80 -50 -85 -47 -2 0 -19 -2 -38 -6 -53 -10 -84 7 -184 100 -86 78 -102 99
-122 150 -8 23 -8 19 0 68 6 31 4 37 -6 31 -7 -4 -5 1 4 12 10 10 40 52 66 91
43 65 174 211 230 255 187 150 223 174 377 252 50 25 83 45 75 45 -8 0 -22 -4
-30 -9z m-727 -592 c-4 -7 -8 -19 -10 -27 -1 -8 -8 -18 -15 -22 -7 -5 -9 -9
-5 -9 5 0 5 -6 0 -12 -4 -7 -6 -20 -5 -30 2 -9 -1 -19 -5 -21 -8 -5 -10 44 -3
51 1 1 4 7 5 12 1 6 3 12 4 15 0 3 0 7 -1 9 -3 4 33 46 39 46 2 0 1 -6 -4 -12z"/>
<path d="M3037 3284 c-1 -1 -34 -4 -74 -7 -148 -12 -397 -94 -556 -184 -33
-18 -61 -33 -63 -33 -6 0 -157 -101 -164 -109 -3 -3 -23 -19 -45 -36 -22 -16
-48 -38 -57 -49 -10 -10 -18 -16 -18 -12 0 3 -14 -7 -31 -24 -18 -16 -36 -30
-40 -30 -5 0 -9 -4 -9 -10 0 -5 37 18 83 50 171 123 417 227 637 270 144 28
355 30 510 5 220 -36 481 -144 705 -293 131 -87 218 -160 428 -360 159 -151
221 -189 289 -178 47 8 157 78 232 148 l51 48 -47 -26 c-27 -15 -64 -25 -88
-26 -50 0 -106 40 -258 186 -58 55 -113 108 -122 116 -8 8 -44 40 -79 70 -36
30 -75 65 -89 77 -13 12 -47 37 -76 55 -28 18 -53 35 -56 39 -7 9 -164 97
-230 130 -143 69 -287 126 -345 135 -16 3 -43 9 -60 14 -29 9 -49 12 -150 26
-47 6 -272 13 -278 8z"/>
<path d="M2455 2732 c-158 -83 -233 -139 -380 -287 -135 -135 -177 -197 -190
-280 -12 -76 8 -120 96 -205 44 -42 105 -90 135 -105 52 -26 59 -28 113 -18
71 14 156 63 291 170 187 149 308 190 525 180 145 -7 222 -25 329 -76 90 -42
150 -88 316 -238 216 -197 272 -205 453 -69 40 30 81 64 91 75 18 20 15 19
-38 -5 -53 -24 -62 -25 -100 -14 -39 11 -102 51 -162 102 -28 24 -66 58 -144
132 -90 84 -256 188 -320 199 -14 3 -43 10 -65 16 -138 37 -341 33 -476 -8
-69 -22 -174 -84 -224 -133 -56 -56 -212 -168 -246 -179 -116 -35 -149 -22
-279 105 -100 98 -116 130 -100 206 17 77 33 106 115 208 19 23 170 148 220
183 28 18 77 48 110 66 33 18 56 33 50 33 -5 0 -60 -26 -120 -58z m-429 -447
c-1 -8 -5 -17 -8 -21 -5 -4 -4 16 1 34 3 9 9 -1 7 -13z"/>
<path d="M1949 2763 c-13 -16 -12 -17 4 -4 9 7 17 15 17 17 0 8 -8 3 -21 -13z"/>
<path d="M1899 2723 c-13 -16 -12 -17 4 -4 9 7 17 15 17 17 0 8 -8 3 -21 -13z"/>
<path d="M2951 1939 c-19 -11 -73 -60 -121 -108 -84 -83 -126 -141 -113 -155
4 -3 2 -6 -4 -6 -20 0 -36 -88 -31 -173 8 -154 92 -280 232 -347 166 -79 336
-40 481 110 l40 41 -35 -18 c-27 -14 -58 -18 -135 -18 -94 0 -105 2 -169 34
-167 82 -262 263 -227 433 12 58 67 178 82 178 4 0 14 11 23 25 20 30 20 30
-23 4z"/>
</g>
</svg>
